<mxfile host="app.diagrams.net" agent="Mozilla/5.0 (Macintosh; Intel Mac OS X 10_15_7) AppleWebKit/537.36 (KHTML, like Gecko) Chrome/132.0.0.0 Safari/537.36" version="26.0.11">
  <diagram name="Page-1" id="KE3CMK4nPBIwz1JuBw6i">
    <mxGraphModel dx="929" dy="633" grid="1" gridSize="10" guides="1" tooltips="1" connect="1" arrows="1" fold="1" page="1" pageScale="1" pageWidth="4000" pageHeight="4000" math="0" shadow="0">
      <root>
        <mxCell id="0" />
        <mxCell id="1" parent="0" />
        <mxCell id="1FRbBdP1Db73fY1zEo1a-5" value="" style="edgeStyle=orthogonalEdgeStyle;rounded=0;orthogonalLoop=1;jettySize=auto;html=1;" edge="1" parent="1" source="1FRbBdP1Db73fY1zEo1a-1" target="1FRbBdP1Db73fY1zEo1a-4">
          <mxGeometry relative="1" as="geometry">
            <Array as="points">
              <mxPoint x="2000" y="200" />
              <mxPoint x="1680" y="200" />
            </Array>
          </mxGeometry>
        </mxCell>
        <mxCell id="1FRbBdP1Db73fY1zEo1a-7" style="edgeStyle=orthogonalEdgeStyle;rounded=0;orthogonalLoop=1;jettySize=auto;html=1;entryX=0.5;entryY=0;entryDx=0;entryDy=0;" edge="1" parent="1" source="1FRbBdP1Db73fY1zEo1a-1" target="1FRbBdP1Db73fY1zEo1a-6">
          <mxGeometry relative="1" as="geometry" />
        </mxCell>
        <mxCell id="1FRbBdP1Db73fY1zEo1a-9" style="edgeStyle=orthogonalEdgeStyle;rounded=0;orthogonalLoop=1;jettySize=auto;html=1;entryX=0.5;entryY=0;entryDx=0;entryDy=0;" edge="1" parent="1" source="1FRbBdP1Db73fY1zEo1a-1" target="1FRbBdP1Db73fY1zEo1a-8">
          <mxGeometry relative="1" as="geometry">
            <Array as="points">
              <mxPoint x="2000" y="200" />
              <mxPoint x="2320" y="200" />
            </Array>
          </mxGeometry>
        </mxCell>
        <mxCell id="1FRbBdP1Db73fY1zEo1a-1" value="&lt;font style=&quot;font-size: 50px;&quot;&gt;&lt;b&gt;Home&lt;/b&gt;&lt;/font&gt;" style="rounded=0;whiteSpace=wrap;html=1;fillColor=#f5f5f5;fontColor=#333333;strokeColor=#666666;fontSize=13;" vertex="1" parent="1">
          <mxGeometry x="1840" y="40" width="320" height="140" as="geometry" />
        </mxCell>
        <mxCell id="1FRbBdP1Db73fY1zEo1a-20" style="edgeStyle=orthogonalEdgeStyle;rounded=0;orthogonalLoop=1;jettySize=auto;html=1;entryX=0.5;entryY=0;entryDx=0;entryDy=0;" edge="1" parent="1" source="1FRbBdP1Db73fY1zEo1a-4" target="1FRbBdP1Db73fY1zEo1a-19">
          <mxGeometry relative="1" as="geometry" />
        </mxCell>
        <mxCell id="1FRbBdP1Db73fY1zEo1a-25" style="edgeStyle=orthogonalEdgeStyle;rounded=0;orthogonalLoop=1;jettySize=auto;html=1;entryX=0.5;entryY=0;entryDx=0;entryDy=0;" edge="1" parent="1" source="1FRbBdP1Db73fY1zEo1a-4" target="1FRbBdP1Db73fY1zEo1a-21">
          <mxGeometry relative="1" as="geometry" />
        </mxCell>
        <mxCell id="1FRbBdP1Db73fY1zEo1a-26" style="edgeStyle=orthogonalEdgeStyle;rounded=0;orthogonalLoop=1;jettySize=auto;html=1;entryX=0.5;entryY=0;entryDx=0;entryDy=0;" edge="1" parent="1" source="1FRbBdP1Db73fY1zEo1a-4" target="1FRbBdP1Db73fY1zEo1a-23">
          <mxGeometry relative="1" as="geometry" />
        </mxCell>
        <mxCell id="1FRbBdP1Db73fY1zEo1a-4" value="Stats" style="whiteSpace=wrap;html=1;fillColor=#dae8fc;strokeColor=#6c8ebf;rounded=0;fontStyle=1;fontSize=23;" vertex="1" parent="1">
          <mxGeometry x="1600" y="260" width="160" height="80" as="geometry" />
        </mxCell>
        <mxCell id="1FRbBdP1Db73fY1zEo1a-11" value="" style="edgeStyle=orthogonalEdgeStyle;rounded=0;orthogonalLoop=1;jettySize=auto;html=1;" edge="1" parent="1" source="1FRbBdP1Db73fY1zEo1a-6" target="1FRbBdP1Db73fY1zEo1a-10">
          <mxGeometry relative="1" as="geometry" />
        </mxCell>
        <mxCell id="1FRbBdP1Db73fY1zEo1a-15" style="edgeStyle=orthogonalEdgeStyle;rounded=0;orthogonalLoop=1;jettySize=auto;html=1;entryX=0.5;entryY=0;entryDx=0;entryDy=0;" edge="1" parent="1" source="1FRbBdP1Db73fY1zEo1a-6" target="1FRbBdP1Db73fY1zEo1a-12">
          <mxGeometry relative="1" as="geometry" />
        </mxCell>
        <mxCell id="1FRbBdP1Db73fY1zEo1a-6" value="Pit Wall" style="whiteSpace=wrap;html=1;fillColor=#dae8fc;strokeColor=#6c8ebf;rounded=0;fontStyle=1;fontSize=23;" vertex="1" parent="1">
          <mxGeometry x="1920" y="260" width="160" height="80" as="geometry" />
        </mxCell>
        <mxCell id="1FRbBdP1Db73fY1zEo1a-8" value="Stats" style="whiteSpace=wrap;html=1;fillColor=#dae8fc;strokeColor=#6c8ebf;rounded=0;fontStyle=1;fontSize=23;" vertex="1" parent="1">
          <mxGeometry x="2240" y="260" width="160" height="80" as="geometry" />
        </mxCell>
        <mxCell id="1FRbBdP1Db73fY1zEo1a-18" style="edgeStyle=orthogonalEdgeStyle;rounded=0;orthogonalLoop=1;jettySize=auto;html=1;entryX=0.5;entryY=0;entryDx=0;entryDy=0;" edge="1" parent="1" source="1FRbBdP1Db73fY1zEo1a-10" target="1FRbBdP1Db73fY1zEo1a-16">
          <mxGeometry relative="1" as="geometry" />
        </mxCell>
        <mxCell id="1FRbBdP1Db73fY1zEo1a-10" value="Live Race" style="whiteSpace=wrap;html=1;fillColor=#ffe6cc;strokeColor=#d79b00;rounded=0;" vertex="1" parent="1">
          <mxGeometry x="1880" y="390" width="110" height="60" as="geometry" />
        </mxCell>
        <mxCell id="1FRbBdP1Db73fY1zEo1a-17" value="" style="edgeStyle=orthogonalEdgeStyle;rounded=0;orthogonalLoop=1;jettySize=auto;html=1;" edge="1" parent="1" source="1FRbBdP1Db73fY1zEo1a-12" target="1FRbBdP1Db73fY1zEo1a-16">
          <mxGeometry relative="1" as="geometry" />
        </mxCell>
        <mxCell id="1FRbBdP1Db73fY1zEo1a-12" value="Archive" style="whiteSpace=wrap;html=1;fillColor=#ffe6cc;strokeColor=#d79b00;rounded=0;" vertex="1" parent="1">
          <mxGeometry x="2010" y="390" width="110" height="60" as="geometry" />
        </mxCell>
        <mxCell id="1FRbBdP1Db73fY1zEo1a-16" value="Pit wall style setup with data" style="whiteSpace=wrap;html=1;rounded=0;" vertex="1" parent="1">
          <mxGeometry x="1950" y="500" width="100" height="40" as="geometry" />
        </mxCell>
        <mxCell id="1FRbBdP1Db73fY1zEo1a-19" value="Records" style="whiteSpace=wrap;html=1;fillColor=#ffe6cc;strokeColor=#d79b00;rounded=0;" vertex="1" parent="1">
          <mxGeometry x="1625" y="390" width="110" height="60" as="geometry" />
        </mxCell>
        <mxCell id="1FRbBdP1Db73fY1zEo1a-21" value="Driver Analysis" style="whiteSpace=wrap;html=1;fillColor=#ffe6cc;strokeColor=#d79b00;rounded=0;" vertex="1" parent="1">
          <mxGeometry x="1410" y="390" width="110" height="60" as="geometry" />
        </mxCell>
        <mxCell id="1FRbBdP1Db73fY1zEo1a-23" value="General race by race stats and graphs" style="whiteSpace=wrap;html=1;fillColor=#ffe6cc;strokeColor=#d79b00;rounded=0;" vertex="1" parent="1">
          <mxGeometry x="1200" y="390" width="110" height="60" as="geometry" />
        </mxCell>
      </root>
    </mxGraphModel>
  </diagram>
</mxfile>
